<svg width="1300" height="90.00000000000001" xmlns="http://www.w3.org/2000/svg">
 <!-- Created with Method Draw - http://github.com/duopixel/Method-Draw/ -->

 <g>
  <title>background</title>
  <rect fill="#fff" id="canvas_background" height="92" width="1302" y="-1" x="-1"/>
  <g display="none" overflow="visible" y="0" x="0" height="100%" width="100%" id="canvasGrid">
   <rect fill="url(#gridpattern)" stroke-width="0" y="0" x="0" height="100%" width="100%"/>
  </g>
 </g>
 <g>
  <title>Layer 1</title>
  <path d="m18.25,66.662498c0.25,-0.25 1.25,-1 2.25,-2c1,-1 2.126451,-2.3559 3,-3.25c1.502909,-1.538265 2.046999,-3.006504 3.25,-3.75c0.672499,-0.415627 1.605595,-1.633205 3,-3c1.143185,-1.120548 2.564171,-2.462372 4.25,-3.75c1.601784,-1.223434 2.75,-2 4.25,-2.75l1.25,-1l0.75,-0.25l0.5,-0.25" id="svg_1" stroke="#000" fill="none"/>
  <path d="m45,43.912498c0.25,-0.25 0.75,-1 1.25,-1.25c1,-0.5 2.175667,-1.385342 3,-1.75c0.942661,-0.417004 1.808502,-0.873238 3,-1.5c0.797749,-0.41964 1.950607,-1.108219 3.5,-1.75c1.460781,-0.605076 2.5,-0.75 3.5,-1l0.5,-0.5l0.25,0" id="svg_2" stroke="#000" fill="none"/>
  <path d="m65.25,34.912498c0.75,0 2,0 3,0c1.25,0 3,0 4.75,0c1.5,0 3.005112,-0.123722 4.5,0c1.515511,0.125427 2.774155,0.383434 4.25,0.75c1.534515,0.381138 3.175629,1.140873 4.5,1.75c1.436485,0.66069 3.316002,0.877659 5.25,2c1.559242,0.904861 3.742096,2.263336 5,3c1.739265,1.018559 3.0495,1.658241 4.5,2.5c0.779617,0.452431 1.25,1 1.75,1.25l0,0.25" id="svg_3" stroke="#000" fill="none"/>
  <path d="m108.5,51.162498c-0.25,0 0,0 0.25,0c0.5,0 1.25,0.25 1.75,0.5c0.5,0.25 0.969643,0.623363 1.75,0.75c0.493546,0.08009 1.25,0.25 1.75,0.5c0.5,0.25 1.743546,0.284779 3,0.5c1.742393,0.298458 2.734489,0.374573 4.25,0.5c0.99659,0.082481 2,0 3,0c1,0 2,0 3.5,0c1.25,0 2.75,-0.25 3.5,-0.5l0.75,-0.25l0.25,-0.25l0,-0.25" id="svg_4" stroke="#000" fill="none"/>
  <path d="m138.5,49.662498c0.5,0 0.673141,-0.046501 1,-0.5c0.206726,-0.286816 0.5,-0.5 0.75,-0.75c0.5,-0.5 0.673141,-1.046501 1,-1.5c0.206726,-0.286816 0.923141,-1.046501 1.25,-1.5c0.413452,-0.573635 0.9561,-1.024471 1.25,-1.5c0.131439,-0.212662 -0.076859,-0.796501 0.25,-1.25c0.413452,-0.573635 0.75,-1 0.75,-1.5l0.25,-0.25l0,-0.25l0,-0.25" id="svg_5" stroke="#000" fill="none"/>
  <path d="m146.25,35.912498c0,-0.25 0,-0.5 0,-1c0,-0.25 0,-0.75 0,-1.5c0,-0.5 0,-1 0,-1.75c0,-0.5 0.116913,-1.54973 -0.25,-2.25c-0.580139,-1.107224 -0.976578,-1.77585 -1.25,-2c-0.697083,-0.57147 -1,-1.25 -1.25,-1.5c-0.5,-0.5 -1.161835,-0.760082 -2,-1.5c-0.675751,-0.59654 -0.733536,-1.286074 -1.25,-1.5c-0.730392,-0.302538 -1.476944,-0.874056 -2.5,-1c-0.992508,-0.122183 -2.507492,-0.627817 -3.5,-0.75c-1.023056,-0.125944 -2,-0.25 -3,-0.25c-1,0 -1.75,0 -2.75,0l-0.5,0l-0.25,0l-0.5,0" id="svg_6" stroke="#000" fill="none"/>
  <path d="m121,23.162498c-0.5,0 -0.75,0.25 -1,0.75c-0.25,0.5 -0.35511,1.021454 -0.5,1.5c-0.261208,0.862711 -0.873367,1.719639 -1,2.5c-0.12014,0.740316 -0.084373,1.077501 -0.5,1.75c-0.37175,0.601501 -0.623367,1.469639 -0.75,2.25c-0.12014,0.740314 -0.25,1.5 -0.25,2.25c0,1.25 0,2 0,2.75c0,1.25 0,2 0,3c0,1 0.103973,1.690269 0.5,2.5c0.347336,0.710182 0.469414,1.516502 0.75,2c0.452431,0.779621 0.584373,1.577503 1,2.25c0.185875,0.300751 0.963181,0.793274 1.25,1c0.453499,0.326862 0.75,0.5 1,0.75l0.25,0.25l0.25,0.5" id="svg_7" stroke="#000" fill="none"/>
  <path d="m136.25,56.912498c0,0 0.75,0 2,0c1,0 1.984497,0.624573 3.5,0.75c1.245743,0.1031 3.027069,-0.033661 4.5,0.25c1.322006,0.254593 2.734497,0.624573 4.25,0.75c1.744034,0.144341 3.5,0 5.75,0c2.25,0 4,0 6.75,0c1.5,0 4.25,-0.75 6.5,-1l1.75,-0.75l1.5,-0.25l0.75,0" id="svg_8" stroke="#000" fill="none"/>
  <path d="m178.5,53.412498c0.5,-0.25 1.057343,-0.832996 2,-1.25c0.824326,-0.364658 1.558243,-0.89743 2.5,-1.5c1.348389,-0.862747 2.524857,-1.953106 3.5,-2.5c2.057068,-1.153675 3.216461,-2.302223 4.75,-3.25c1.714539,-1.059647 3.789856,-2.173985 5.75,-3.25c2.555725,-1.402954 5.485199,-2.545555 8.5,-3.5c2.488358,-0.787781 5.394913,-1.514019 7,-2c1.929077,-0.58408 3.25,-0.5 4,-0.75l0.25,0" id="svg_9" stroke="#000" fill="none"/>
  <path d="m221.5,35.662498c0.25,0 0.5,0 1,0c1,0 1.5,0 3,0c0.75,0 2.267944,0.17281 3.5,0.5c1.528168,0.405827 1.940765,0.595139 3.5,1.5c1.93399,1.122341 3.811066,1.85387 5.75,2.75c2.336441,1.079849 3.75,1.75 5.25,2.25l0.75,0.25" id="svg_10" stroke="#000" fill="none"/>
  <path d="m249,45.912498c0.25,0 0.574677,-0.262867 1,0c0.475525,0.293892 1.058502,0.623238 2.25,1.25c0.797745,0.41964 1.740036,1.020996 2.25,1.25c1.228134,0.551517 2.098053,0.486073 3.75,1.25c0.818146,0.378342 2.461151,1.13673 4,1.5c1.72049,0.406151 3.752258,0.982468 5.75,1.25c1.752136,0.234642 4.5,0.25 6.5,0.25c1.25,0 2.75,0 3.5,0l0.5,0" id="svg_11" stroke="#000" fill="none"/>
  <path d="m283.5,52.162498c0.25,0 0.75,0 1.75,0c0.75,0 2,0 3,0c1.25,0 2.5,0 3.75,0c1.75,0 3,0 4.25,0c1.5,0 3.003418,0.167519 4,0.25c1.515503,0.125427 2.5,0.75 3,0.75l0.75,0.5l0.25,0" id="svg_12" stroke="#000" fill="none"/>
  <path d="m308.75,57.662498c0.25,0 0.5,0 1,0.5c0.5,0.5 1.380554,1.345184 2,2c0.859009,0.908066 1.845184,1.380554 2.5,2c0.908081,0.85902 1.428528,2.302917 2,3c0.672455,0.820251 1.5,1.75 2,2.25c1,1 1.707825,2.055138 3,3c0.727631,0.532043 1.479584,1.528038 2.5,2.25c0.73584,0.520615 1,0.75 1.25,1.25l0.25,0.25" id="svg_13" stroke="#000" fill="none"/>
  <path d="m328.625,77.25c0.25,0 0.75,0 1.5,0c0.75,0 1.75,0 2.5,0c1,0 1.719635,0.123367 2.5,0.25c0.740326,0.12014 1.75,0.25 2.75,0.25c1.25,0 2.5,0 3.5,0c1.25,0 1.75,0 3,0c1,0 2.25,0 3.75,0c1.25,0 2.972137,-0.548523 4.25,-1.25c0.980072,-0.53801 2.269043,-0.654327 2.5,-0.75c0.65329,-0.270599 0.75,-0.5 1.25,-0.75l0.25,0" id="svg_14" stroke="#000" fill="none"/>
  <path d="m361.625,71.25c0.25,0 0.5,0 1,-0.25c0.5,-0.25 1,-1 1.75,-1.75c0.5,-0.5 1.306824,-0.946228 2.25,-2c1.067596,-1.192787 2.101013,-1.85289 3.25,-2.75c1.114685,-0.870323 2,-2 3.25,-3c1.25,-1 1.660309,-1.637592 2.75,-2.25c1.173645,-0.65958 1.75,-1 2.5,-1.5l0.25,0" id="svg_15" stroke="#000" fill="none"/>
  <path d="m383.125,54.5c0,-0.25 0.774933,-0.717842 1.75,-1.5c1.797913,-1.44223 2.601013,-2.10289 3.75,-3c1.393372,-1.087906 2.537628,-2.164619 3.75,-2.75c1.815063,-0.876385 3.570801,-2.06192 6,-3.25c2.130554,-1.042015 4.865997,-2.314823 7.5,-3.25c2.172058,-0.771168 4.447571,-1.247559 6.25,-1.5c1.980682,-0.277401 4.5,-0.25 6.5,-0.25c1.5,0 3.25,0 4.5,0.25l0.5,0.25l0.25,0.25l0.25,0" id="svg_16" stroke="#000" fill="none"/>
  <path d="m429.625,42c0.25,0 1.033264,-0.107624 2,0.25c0.524292,0.193951 1.639557,0.629822 2.5,1.25c1.360504,0.980591 2.04895,1.412216 3,2c1.063324,0.657166 2.055695,1.680996 3,2.5c0.53418,0.463299 1.353394,0.90633 2.25,2c0.571472,0.697083 1.181641,1.823406 2.25,2.75c0.944305,0.819004 1.433319,1.558186 2.75,3c0.476837,0.522144 1.431,1.805683 2.25,2.75c0.694946,0.801281 1.25,1.75 1.5,2.5l0.25,0.25" id="svg_17" stroke="#000" fill="none"/>
  <path d="m455.125,66.25c0.25,0 0.692352,0.325806 1,0.5c0.896973,0.507866 1.701416,1.112099 2.75,1.5c0.966736,0.35762 1.503113,0.582695 2.75,1.25c1.123932,0.601501 2.540649,0.572418 4,1c1.827118,0.535347 3.990662,0.874847 6.5,1c2.496887,0.124535 4.25,0 7,0c1,0 2.5,0 3.75,-0.25l0.75,-0.25l0,-0.25" id="svg_18" stroke="#000" fill="none"/>
  <path d="m487.375,69c0.25,0 0.5,0 0.75,0c0.25,0 0.854706,-0.354713 1.25,-0.75c0.395294,-0.395287 1.102905,-1.101006 2,-2.25c0.43515,-0.557343 1.86261,-1.612625 2.5,-2.25c0.63739,-0.637379 0.982025,-1.40276 1.5,-2c0.366272,-0.42231 0.879852,-0.759686 1,-1.5c0.126648,-0.780361 0.392365,-1.283249 0.75,-2.25c0.193939,-0.524292 0.75,-1 0.75,-2l0.25,-0.5" id="svg_19" stroke="#000" fill="none"/>
  <path d="m499.375,51.5c0,-0.5 0,-0.75 0,-1.25c0,-0.5 0,-1.25 0,-2.5c0,-1.5 0,-2.75 0,-4.25c0,-0.75 0.023865,-1.744335 0.25,-2.75c0.279663,-1.243698 0.447449,-2.019608 0.75,-2.75c0.427856,-1.032928 0.778046,-1.729576 1.5,-2.75c0.52063,-0.73584 1.092834,-1.686687 1.75,-2.75c0.587799,-0.951057 0.970367,-1.547569 1.75,-2c0.48349,-0.280586 1.289825,-0.652662 2,-1c0.809723,-0.396027 1,-0.75 1.5,-0.75l0.5,-0.25l0.25,0" id="svg_20" stroke="#000" fill="none"/>
  <path d="m513.125,28.5c0.25,0 0.5,0 0.75,0c0.5,0 1.213196,0.043274 1.5,0.25c0.453491,0.326862 0.676392,1.086548 1.25,1.5c0.906982,0.653727 1.256531,0.796999 2,2c0.415649,0.672497 1.25,2 1.75,3c0.75,1.5 1.432861,3.019222 1.75,4c0.414185,1.280987 1.102234,2.694092 1.75,4c0.598267,1.20607 1.048523,2.722137 1.75,4c0.807007,1.470112 0.868347,2.823414 1.75,4.25c0.657166,1.063313 1.278992,2.240959 1.5,3c0.288208,0.98967 0.75,1.75 0.75,2.5l0,0.25" id="svg_21" stroke="#000" fill="none"/>
  <path d="m533.025024,61.412498c0.25,0 1.269592,-0.052536 2,0.25c1.032959,0.427853 2.25,1 3.75,1.5c0.75,0.25 2.465515,1.368866 4,1.75c1.47583,0.366562 1.792175,0.543488 3.5,1c1.300598,0.347672 3.267944,1.172813 4.5,1.5c1.528198,0.40583 3.266113,0.549774 4.5,0.75c1.56073,0.253273 3.75,0.5 6.5,0.5c2.75,0 5.5,0 7.75,-0.5l0.75,0l1,-0.5l0.5,-0.25" id="svg_22" stroke="#000" fill="none"/>
  <path d="m578.025024,64.662498c0,0 0.5,0 1.75,0c1,0 2.271851,-0.448486 3.5,-1c1.529846,-0.687016 1.769531,-0.724628 2.75,-1.5c1.531555,-1.211166 3.223206,-2.534424 4.5,-3.5c1.715271,-1.297211 3.669922,-2.339684 4.5,-3c1.845703,-1.468285 4,-3 6.25,-4.75c2.25,-1.75 4.67981,-3.354778 7.25,-5c2.92511,-1.872448 5.901184,-3.216442 9,-4.5c2.92157,-1.210152 4.25,-1.75 5.75,-2.25l0.75,-0.25l0.75,-0.25l0.25,0" id="svg_23" stroke="#000" fill="none"/>
  <path d="m629.025024,38.662498c0.25,0 0.5,0 1,0c0.5,0 2.020081,-0.172314 2.75,0c1.632202,0.385307 3.272766,1.198921 5,2c1.521362,0.705616 3.413086,2.155449 6,3.5c2.184753,1.135517 3.487671,1.765144 6.25,4c1.244507,1.006851 2.880371,2.87846 4.75,4.5c0.944336,0.819004 3.142517,2.635368 5,4c1.900696,1.39637 4.238708,2.76823 6.25,4c2.486267,1.522663 3.25,1.75 4.75,2.5l0.75,0.5l0.5,0" id="svg_24" stroke="#000" fill="none"/>
  <path d="m678.525024,65.662498c0.25,0 0.5,0 1.25,0c0.75,0 1.75,0 2.75,0c1,0 2.5,0 4.25,0c1.25,0 2.5,0 4,0c1,0 2.73584,-0.536934 4,-1c1.48468,-0.543846 2.802917,-0.928532 3.5,-1.5c1.093689,-0.896595 2,-1.5 2.75,-2.25l0.75,-0.25l0,0l0,-0.25" id="svg_25" stroke="#000" fill="none"/>
  <path d="m710.025024,54.412498c0.25,-1 1.183289,-2.558186 2.5,-4c1.668884,-1.827503 3.363098,-3.363571 5.5,-5.25c1.590332,-1.403896 2.942871,-3.317505 5,-5c1.560181,-1.276062 3.346497,-2.332069 4.75,-3.25c1.634094,-1.068733 3.05481,-1.883224 4.75,-2.75c1.297913,-0.663639 2.25,-1 2.75,-1.25l0.25,-0.25l0.25,0l0.25,0" id="svg_26" stroke="#000" fill="none"/>
  <path d="m743.150024,32.5c0.25,0 0.75,0 2,0c1,0 2.5,0 3.75,0c1.75,0 3,0 4.75,0c2,0 3.558655,-0.449169 5.25,0c1.948059,0.51733 3.700623,1.358219 5.25,2c2.191162,0.907612 4.153687,1.399471 5.25,2c1.873352,1.02618 3.89679,1.432812 6,2.5c1.200562,0.60918 2.5,1.75 3.75,2.25l0.5,0.75" id="svg_27" stroke="#000" fill="none"/>
  <path d="m783.150024,43.5c0.25,0 0.769592,0.447464 1.5,0.75c1.032959,0.427853 1.768188,0.970474 3,1.75c0.761658,0.482018 2.229553,1.278034 3.25,2c0.73584,0.520618 2.158081,1.119343 3.75,2.25c1.188477,0.844124 2.695679,1.64217 4.5,2.25c1.953674,0.658146 4.422546,1.503242 6.5,2c2.201782,0.526489 4.485229,1.098469 7.5,1.5c2.490479,0.331703 5.242798,0.624908 8.5,0.75c3.24762,0.124725 5.75,0 7.25,0l1,0l0.25,0" id="svg_28" stroke="#000" fill="none"/>
  <path d="m837.900024,56.5c0.25,0 0.5,0 0.75,0c0.25,0 0.75,0 1.75,0c0.75,0 2.017944,0.07719 3.25,-0.25c0.764099,-0.202915 2.254822,-0.680649 2.75,-0.75c1.802429,-0.252441 2.802368,-0.91003 5,-2.25c0.769592,-0.469261 1.866943,-1.694035 3.25,-2.5c1.163208,-0.677834 2.605835,-1.107059 4,-2.25c1.093689,-0.896595 2.696228,-2.306831 3.75,-3.25c1.19281,-1.067596 2.237549,-1.76506 3.75,-3c1.239929,-1.012447 2,-1.5 2.5,-1.75l0,-0.25l0.5,0" id="svg_29" stroke="#000" fill="none"/>
  <path d="m873.400024,38c0.25,-0.25 0.540283,-0.4366 1.75,-1.25c1.037292,-0.697487 1.980103,-1.541992 3,-2c1.228149,-0.551517 2.539246,-0.644924 4,-1.25c1.032959,-0.427853 2.488342,-0.62476 4.5,-0.75c1.497131,-0.093204 3.5,0 5.5,0c2,0 3.409973,0.177307 5.25,1c1.44342,0.645374 3.522766,1.698921 5.25,2.5c1.521362,0.705616 3.470398,1.797569 4.25,2.25c1.4505,0.841759 4.272766,2.448921 6,3.25c1.014282,0.470409 2.5,1 3.25,1.5l0.25,0.25" id="svg_30" stroke="#000" fill="none"/>
  <path d="m920.825012,46.25c0.25,0 0.75,0 1.5,0.25c0.75,0.25 2.069275,0.557003 3,1c1.128662,0.537216 1.738647,1.047722 3.75,1.5c1.243713,0.279667 2.778748,0.63475 5,1.25c0.761902,0.211029 2.5,0.5 4.5,0.75c2,0.25 4,0.75 6.25,0.75c2.25,0 4.990662,0.124844 7.5,0.25c2.496887,0.124535 5.75,0.25 8.5,0.25c3.25,0 6.763916,0.300758 10,0c4.052246,-0.376617 7,-1.25 9,-1.75l1.75,-0.5l0.5,0l0.25,-0.25" id="svg_31" stroke="#000" fill="none"/>
  <path d="m988.825012,48.75c0.25,0 1.020081,0.172314 1.75,0c1.632202,-0.385307 2.5,-1 4.5,-1.25c2,-0.25 4.766785,-0.12891 7,-0.5c2.273682,-0.377815 4.758545,-0.2938 7.25,-0.5c1.515503,-0.125427 4,-0.5 7,-0.5c3,0 6.019165,-0.170876 8.999939,0.25c1.262207,0.178223 4.028687,0.63475 6.25,1.25c3.047485,0.844116 5.141846,2.041946 7.5,2.75c1.456421,0.437302 3,0.75 4,1l0.5,0.5" id="svg_32" stroke="#000" fill="none"/>
  <path d="m1049.574951,56.25c0.25,0 1.294189,-0.163704 2.5,0.25c1.586304,0.544266 3.423462,1.182594 5,2.25c0.585571,0.396423 1.940796,1.595139 3.5,2.5c1.93396,1.122341 3.802734,1.662849 5.5,2.75c1.810913,1.159973 3.470093,2.062988 5,2.75c1.228149,0.551514 3.25,1.25 5.5,1.75c2.25,0.5 4.490601,0.624847 7,0.75c2.496948,0.124535 5.253052,0.135941 8.25,0c2.758545,-0.12513 5.25,-1 7,-1.75l1.5,-0.5l1.25,-1" id="svg_33" stroke="#000" fill="none"/>
  <path d="m1106.324951,62.5c0,-0.25 0.296509,-0.173138 0.75,-0.5c0.286865,-0.206726 1,-0.75 1.25,-1c0.75,-0.75 1.096313,-1.343002 1.75,-2.25c0.413452,-0.573635 0.885376,-0.925667 1.25,-1.75c0.416992,-0.942661 0.478027,-2.007668 0.75,-2.75c0.463013,-1.264149 0.75,-2 1.25,-2.5l0,-0.25l0.25,-0.5l0,-0.25" id="svg_34" stroke="#000" fill="none"/>
  <path d="m1114.324951,46.25c0,-1.75 0,-2.75 0,-3.75c0,-1.5 -0.25,-2.75 -0.5,-4c-0.25,-1.25 -0.572144,-1.717072 -1,-2.75c-0.30249,-0.730392 -0.836548,-1.426365 -1.25,-2c-0.653687,-0.906998 -1.190308,-1.261105 -2.5,-2.5c-0.908081,-0.859018 -1.929688,-1.577553 -2.75,-2.25c-0.697021,-0.57147 -1,-0.5 -1.75,-1l0,-0.25" id="svg_37" stroke="#000" fill="none"/>
  <path d="m1097.324951,26.25c-0.25,0 -0.75,0 -1.75,0c-1,0 -2,0 -2.25,0c-0.75,0 -1.5,0 -2,0c-0.75,0 -1.769897,-0.038008 -2.75,0.5c-1.277832,0.701477 -2.305664,1.180998 -3.25,2c-0.80127,0.694946 -1.178589,1.302919 -1.75,2c-0.448242,0.546835 -1.25,1 -1.75,1.5c-0.25,0.25 -0.5,0.75 -0.75,1.25l-0.25,0l0,0.25l-0.25,0.25" id="svg_38" stroke="#000" fill="none"/>
  <path d="m1078.824951,38c0,0.25 0.217285,0.532181 0,1.25c-0.26123,0.862713 -0.623413,1.469639 -0.75,2.25c-0.120117,0.740314 -0.25,1.75 -0.25,2.5c0,0.75 0,1.5 0,2.25c0,0.5 0,1.5 0,2.5c0,0.75 -0.080078,1.756454 0,2.25c0.126587,0.780361 0.448486,1.271858 1,2.5c0.458008,1.019917 1,2 1.5,3c0.25,0.5 0.5,1 0.75,1.25c0.5,0.5 0.75,0.75 1,0.75l0,0l0.25,0.5l0.25,0" id="svg_39" stroke="#000" fill="none"/>
  <path d="m1086.074951,63.5c0.25,0 0.5,0 0.5,0c0.5,0.25 0.67334,0.3647 1,0.5c0.461914,0.191345 0.796509,0.173134 1.25,0.5c0.286865,0.206726 1.006714,0.442558 1.25,0.5c0.544067,0.128433 0.705933,0.621567 1.25,0.75c0.243286,0.057442 0.67334,0.3647 1,0.5c0.230957,0.095673 0.42334,0.1147 0.75,0.25c0.230957,0.095673 0.455933,0.121567 1,0.25c0.243286,0.057442 0.323242,0.073227 0.5,0.25c0.176758,0.176773 0.75,0 1,0c0.25,0 0.5,0 0.75,0l0,0.25l0.25,0l0.25,0" id="svg_40" stroke="#000" fill="none"/>
  <path d="m1101.824951,68.75c0.75,0 1,0 1.5,0c1,0 2,0.5 2.5,0.5c1.25,0 2,0.25 3.25,0.25c1,0 2.234497,0.124573 3.75,0.25c0.996582,0.082481 2.453857,0.498116 4.5,0.75c2.233154,0.27491 4.25,0 6.75,0c1,0 3,0 5,0c2.5,0 5.263428,0.270981 8,0c3.805664,-0.376831 7.25,-1.25 10,-1.75l2,-0.25l1.5,-0.25l0.5,-0.25" id="svg_41" stroke="#000" fill="none"/>
  <path d="m1158.824951,66c0.25,0 0.5,0 0.75,0c0.75,0 1,0 1.5,0c0.5,0 1.25,0 1.5,0c0.75,0 1.75,-0.5 2.75,-0.75c1,-0.25 1.983521,-0.786072 2.5,-1c0.730347,-0.302536 2.142822,-1.419868 3.25,-2c1.400513,-0.733818 2.2948,-0.935905 3.75,-2c1.292236,-0.944866 3.25,-1.75 4.75,-2.75c0.75,-0.5 1.936646,-1.342834 3,-2c0.95105,-0.587784 1.5,-0.75 2.25,-1l0.25,-0.25" id="svg_42" stroke="#000" fill="none"/>
  <path d="m1193.162476,49.5c0.25,0 1.005615,0.091637 1.75,0c1.023071,-0.125942 1.705933,-0.371563 2.25,-0.5c1.216553,-0.287189 2.25,-0.25 3,-0.25c1.25,0 2.481445,-0.37439 3.75,-0.5c0.995117,-0.098537 2.5,0 3.75,0c1.5,0 2.5,0 3.5,0c1.25,0 2.25,0 3,0c0.5,0 1.324707,-0.262867 1.75,0c0.475586,0.293892 0.5,0.5 0.75,0.5l0.25,0.25l0.5,0" id="svg_43" stroke="#000" fill="none"/>
  <g id="svg_68">
   <g transform="matrix(0.128925, 0, 0, 0.147429, 580.34, 37.756)" id="svg_48">
    <g id="svg_49">
     <g id="svg_50">
      <path id="svg_51" d="m5410.644531,-82.071053l-0.882813,-0.882996c-11.476074,-11.476006 -31.779297,-11.476006 -43.254883,0l-45.90332,46.786011c-2.647949,2.64798 -6.178711,2.64798 -8.828125,0l-64.441406,-60.027016c-6.179688,-5.296997 -14.124023,-8.827988 -22.952148,-8.827988l-96.221191,0c-2.647949,0 -4.414063,0.882996 -5.297363,1.765991l-81.213867,77.68301c-11.475586,12.358978 -12.358887,31.778992 -1.765625,43.255005c5.296875,6.178986 13.240723,9.709991 22.068848,9.709991c8.827637,0 16.771973,-3.531006 22.068848,-9.709991l57.378906,-60.910015l20.303223,0l-134.177246,150.068008l-82.978516,0c-20.303223,0 -36.193359,15.006989 -37.076172,33.544983c-0.882813,9.710022 2.647949,19.421021 9.709961,26.483002c7.062012,6.179016 15.889648,10.593018 25.600098,10.593018l123.586914,0c2.647949,0 4.414063,-0.882996 6.179199,-2.64801l63.558594,-67.971985l52.964844,55.613983l-15.889648,102.399963c-4.414063,17.654999 4.414063,34.428009 19.420898,41.490021c5.296875,2.64798 9.709961,3.531006 15.006836,3.531006c5.296875,0 10.593262,-0.883026 15.890625,-3.531006c8.827637,-4.414001 15.889648,-13.240997 18.537598,-23.835022l27.364746,-147.420959c0,-2.64801 -0.882813,-6.178986 -2.647461,-7.945007l-73.269531,-73.269016l58.262207,-58.261993l40.606934,40.606995c11.476074,11.476013 30.897461,11.476013 42.37207,0l75.916992,-75.916988c11.477051,-11.47699 11.477051,-30.896988 0.000977,-42.372993zm-12.358887,30.014l-75.916992,75.917004c-5.297363,4.414001 -13.240723,4.414001 -17.654785,0l-46.786133,-46.786011c-3.53125,-3.530977 -8.828125,-3.530977 -12.359375,0l-70.621094,70.621002c-1.765625,1.766022 -2.647461,3.531006 -2.647461,6.179016s0.882813,4.414001 3.530762,7.061981l75.916992,75.917027l-26.48291,142.123962c-1.766113,4.414001 -5.296875,8.828003 -9.709961,11.475983c-4.414063,1.766022 -9.709961,2.64801 -15.006836,0c-7.945313,-3.530975 -11.476563,-12.358978 -9.709961,-22.069l16.771484,-107.69696c0,-2.64801 -0.882813,-5.296997 -2.647461,-7.061981l-62.67627,-65.324005c-1.766113,-1.765991 -3.530762,-2.64801 -6.179199,-2.64801c-2.647461,0 -5.296875,0.882996 -6.178711,2.64801l-67.089844,71.502991l-120.055176,0c-5.297363,0 -9.710449,-1.765991 -13.241211,-5.296997c-2.647949,-3.531006 -4.413574,-7.945007 -4.413574,-13.240997c0,-9.709991 8.827637,-16.772003 19.420898,-16.772003l86.509766,0c2.647949,0 4.414063,-0.882996 6.178711,-0.882996l150.069336,-167.724014c2.647949,-2.647995 2.647949,-6.179001 1.765625,-9.709991c-0.882813,-3.531006 -4.413574,-5.297012 -7.944336,-5.297012l-44.138672,0c-1.765625,0 -4.413574,0.883011 -6.178711,2.64801l-60.027832,63.558987c-1.766113,2.64801 -5.297363,4.414001 -8.828125,4.414001c-3.530762,0 -7.062012,-1.765991 -9.709961,-4.414001c-4.414063,-5.296997 -4.414063,-13.240997 0.883301,-18.537994l78.56543,-75.034l93.572266,0c3.53125,0 7.945313,1.766006 10.592773,4.414001l64.441406,60.028019c9.709961,8.827972 24.716797,7.944977 33.544922,-0.883026l45.903809,-46.785992c4.414063,-4.414001 13.240723,-4.414001 17.654785,0l0.883301,0.883003c4.413086,4.412987 4.413086,12.357994 -0.000977,16.771996z"/>
      <path id="svg_52" d="m5313.540527,-78.540054c29.131348,0 52.966309,-23.834 52.966309,-52.965988s-23.834961,-52.964996 -52.966309,-52.964996s-52.96582,23.834 -52.96582,52.965988s23.834961,52.964996 52.96582,52.964996zm0,-88.275986c19.421387,0 35.310059,15.889999 35.310059,35.309998c0,19.42099 -15.889648,35.309998 -35.310059,35.309998s-35.310059,-15.889999 -35.310059,-35.309998c0,-19.419998 15.890137,-35.309998 35.310059,-35.309998z"/>
     </g>
    </g>
   </g>
   <g transform="matrix(0.128925, 0, 0, 0.147429, 580.34, 37.756)" id="svg_53"/>
   <g transform="matrix(0.128925, 0, 0, 0.147429, 580.34, 37.756)" id="svg_54"/>
   <g transform="matrix(0.128925, 0, 0, 0.147429, 580.34, 37.756)" id="svg_55"/>
   <g transform="matrix(0.128925, 0, 0, 0.147429, 580.34, 37.756)" id="svg_56"/>
   <g transform="matrix(0.128925, 0, 0, 0.147429, 580.34, 37.756)" id="svg_57"/>
   <g transform="matrix(0.128925, 0, 0, 0.147429, 580.34, 37.756)" id="svg_58"/>
   <g transform="matrix(0.128925, 0, 0, 0.147429, 580.34, 37.756)" id="svg_59"/>
   <g transform="matrix(0.128925, 0, 0, 0.147429, 580.34, 37.756)" id="svg_60"/>
   <g transform="matrix(0.128925, 0, 0, 0.147429, 580.34, 37.756)" id="svg_61"/>
   <g transform="matrix(0.128925, 0, 0, 0.147429, 580.34, 37.756)" id="svg_62"/>
   <g transform="matrix(0.128925, 0, 0, 0.147429, 580.34, 37.756)" id="svg_63"/>
   <g transform="matrix(0.128925, 0, 0, 0.147429, 580.34, 37.756)" id="svg_64"/>
   <g transform="matrix(0.128925, 0, 0, 0.147429, 580.34, 37.756)" id="svg_65"/>
   <g transform="matrix(0.128925, 0, 0, 0.147429, 580.34, 37.756)" id="svg_66"/>
   <g transform="matrix(0.128925, 0, 0, 0.147429, 580.34, 37.756)" id="svg_67"/>
  </g>
 </g>
</svg>