<svg width="1384" height="62" xmlns="http://www.w3.org/2000/svg">
 <!-- Created with Method Draw - http://github.com/duopixel/Method-Draw/ -->

 <g>
  <title>background</title>
  <rect fill="#fff" id="canvas_background" height="64" width="1386" y="-1" x="-1"/>
  <g display="none" overflow="visible" y="0" x="0" height="100%" width="100%" id="canvasGrid">
   <rect fill="url(#gridpattern)" stroke-width="0" y="0" x="0" height="100%" width="100%"/>
  </g>
 </g>
 <g>
  <title>Layer 1</title>
  <path d="m8.333267,49.316528c1.999985,-0.999992 4.307004,-3.037998 7.666606,-5.333294c3.969413,-2.711918 8.34522,-5.979141 12.999898,-8.666595c4.010342,-2.315437 7.6283,-4.089725 10.66658,-5.333292c2.635746,-1.07881 5.666622,-2.333315 8.666599,-3.333307c2.999977,-0.999992 5.280739,-2.153244 7.999935,-2.999977c2.62442,-0.817223 5.216404,-1.669363 7.666607,-2.333315c2.593853,-0.702877 4.039326,-0.791794 6.333286,-1.333323c1.025887,-0.242178 2.654587,-0.37195 3.666634,-0.66666c1.31955,-0.384253 2.666649,-0.333332 3.666641,-0.333332l0.333328,-0.33333l0.333328,0l0.333336,0" id="svg_27" fill-opacity="null" stroke-opacity="null" stroke-width="4" stroke="#000" fill="none"/>
  <path d="m99.332542,17.65011c0.333336,0 1.999985,0 3.666641,0c2.666649,0 4.999962,0 6.999947,0c2.999977,0 4.999962,0 6.999939,0c1.999985,0 2.982216,0.166246 5.333298,0.333332c2.659935,0.189035 4.340652,0.279013 6.999939,0.66666c2.006363,0.292471 4.023895,0.563744 5.666626,0.999992c2.037552,0.5411 4.989166,1.37229 7.333267,1.999985c2.655182,0.710997 5.610291,1.521664 8.666611,2.333315c1.642715,0.436245 3.333298,0.66666 4.333298,0.66666l0.333328,0" id="svg_28" fill-opacity="null" stroke-opacity="null" stroke-width="4" stroke="#000" fill="none"/>
  <path d="m167.332001,28.983355c0.333344,0 1.334946,-0.032845 1.666656,0c1.691391,0.16748 3.029129,0.597977 4.666626,1.333323c1.359879,0.610678 3.314453,1.382566 4.999969,1.999985c1.979538,0.725121 3.321289,1.361835 5.666626,2.333313c1.658386,0.686932 3.725204,1.202335 5.333282,1.999985c1.741196,0.863678 4.03035,1.598545 6.333282,2.666645c2.028488,0.940815 4.666626,1.999981 7.333282,2.666645c2.666641,0.66666 5.666611,0.999992 7.333267,1.333324l1.333328,0.333332l0.666656,0" id="svg_29" fill-opacity="null" stroke-opacity="null" stroke-width="4" stroke="#000" fill="none"/>
  <path d="m221.664917,43.649906c0.333328,0 0.999985,0 1.333313,0c0.666656,0 1.333328,0 1.999985,0c1,0 1.999985,0 3.333313,0c1.333313,0 2.683853,0.213577 3.999969,0c1.040466,-0.168846 2.98111,-0.715908 4.666626,-1.333324c1.979538,-0.725121 3.248993,-1.205662 4.666626,-1.666653c1.928192,-0.627014 2.92543,-1.136307 4.666626,-1.999985c1.608078,-0.797653 3.248901,-1.790432 4.666641,-2.666645c1.268051,-0.783703 2.999969,-1.333324 3.666626,-1.666653l0,-0.333332l0,-0.333332" id="svg_30" fill-opacity="null" stroke-opacity="null" stroke-width="4" stroke="#000" fill="none"/>
  <path d="m265.664551,28.650024c0.333344,0 0.666656,0 1,0c0.666656,0 0.941254,-0.162085 1.666656,-0.333332c0.973236,-0.229755 2.05307,-0.203547 2.999969,-0.66666c1.079651,-0.52803 2.666656,-0.999987 3.666656,-1.333323c0.999969,-0.333326 2.292816,-0.831146 3.333282,-0.999992c1.645142,-0.266973 2.666656,0 3.666656,0c0.999969,0 1.666656,0 2.666626,0c1,0 2.347076,0.282404 3.666656,0.66666c1.012054,0.294708 1.864624,0.837664 2.666626,1.333323c0.896667,0.554171 1.564484,0.819595 2,0.999992c0.615906,0.255112 1.062012,0.230843 1.666656,0.666662c0.382416,0.275631 0.666656,0.33333 1.333313,0.66666l0.333344,0.333332l0.333313,0" id="svg_31" fill-opacity="null" stroke-opacity="null" stroke-width="4" stroke="#000" fill="none"/>
  <path d="m305.997589,35.983299c0.333313,0 0.666656,0.333336 0.999969,0.66666c0.666656,0.666668 1.602997,1.440468 2.666656,1.999985c1.588654,0.835674 2.602997,1.440475 3.666626,1.999985c1.588654,0.835686 3.710999,1.523155 4.999969,1.999985c2.097137,0.775791 3.691559,1.173191 6.333282,1.666653c1.350983,0.252357 2.999969,0.333332 4.333313,0.333332c2.666626,0 4.999939,0 7.333252,0c2.666656,0 5.666626,-0.999992 8.333282,-2.333317l1.666656,-0.66666l0.666656,-0.333332l0.333313,0" id="svg_32" fill-opacity="null" stroke-opacity="null" stroke-width="4" stroke="#000" fill="none"/>
  <path d="m356.330505,35.316639c0.333344,-0.333332 1.342224,-0.923405 1.666656,-0.999992c0.725403,-0.171246 2.270874,-1.402264 2.999969,-1.999985c0.929443,-0.761959 1.293854,-0.730095 2.333313,-1.333323c1.289337,-0.748234 2.710663,-1.251768 3.999969,-1.999985c1.03949,-0.603239 2.269653,-1.440468 3.333313,-1.999985c1.588654,-0.835676 2.6008,-1.477621 4.666626,-2.333315c0.973846,-0.403383 3.706512,-1.257311 5.666626,-2.333315c1.703796,-0.935299 3.256439,-1.434397 3.666626,-1.666653c1.195984,-0.677168 2,-0.666662 2.666656,-0.666662l0.333344,-0.33333l0.333313,0l0.333344,0" id="svg_33" fill-opacity="null" stroke-opacity="null" stroke-width="4" stroke="#000" fill="none"/>
  <path d="m398.663513,17.65011c1,0 2.610657,-0.792906 3.999969,-1.333323c2.261597,-0.879722 4.722717,-1.528251 7.333282,-2.666645c3.416046,-1.489643 6.238007,-2.685845 9.333252,-3.333307c3.60376,-0.753828 6.984375,-0.833004 9.666595,-0.999991c2.661469,-0.165696 5.670685,-0.147468 8.333252,0c3.013824,0.166921 6.648956,1.382981 10.333252,2.666645c3.981598,1.387242 6.999939,2.333308 9.999939,3.333307c1.999969,0.666656 3.333282,0.999991 3.999939,1.333323l0.666687,0" id="svg_34" fill-opacity="null" stroke-opacity="null" stroke-width="4" stroke="#000" fill="none"/>
  <path d="m472.32959,19.650095c0,0 1.015045,-0.050528 3.333313,0.666662c1.007019,0.311529 3.973389,1.416945 6.999939,2.333315c3.637482,1.101339 6.672241,2.654053 9.666595,3.999968c3.673584,1.651232 7.239594,2.934347 11.666565,4.3333c3.931458,1.242365 8.675873,2.627291 12.999908,3.666636c4.00885,0.963589 7.968811,2.332668 13.333191,2.666645c1.996155,0.124275 7,0 10.666626,-0.333328l3.999939,-2.333317" id="svg_35" fill-opacity="null" stroke-opacity="null" stroke-width="4" stroke="#000" fill="none"/>
  <path d="m553.662292,30.650007c0.333313,0 1.293823,-1.063414 2.333313,-1.666653c1.289307,-0.748217 3.026489,-1.615959 4.333313,-2.333315c1.703796,-0.935276 3.362671,-1.250778 5.333252,-1.999985c2.372864,-0.902157 5.333313,-1.333323 7.666626,-2.333315c2.333313,-0.999992 4.720642,-1.458302 7.666626,-2.333315c2.730103,-0.810888 5.385071,-1.352455 8.333252,-1.999983c1.029541,-0.226126 3.999939,-0.999992 5.999939,-1.333323l1.666626,0l1,-0.333332l0.666687,-0.33333" id="svg_36" fill-opacity="null" stroke-opacity="null" stroke-width="4" stroke="#000" fill="none"/>
  <path d="m610.661804,16.65012c0.333374,0 0.666687,0 2,0c1.666687,0 3.700134,-0.204075 6.333313,0.33333c2.377686,0.48526 4.638123,1.725838 6.666565,2.666645c2.302917,1.06811 5.113037,2.072309 7.666626,3.333307c2.81958,1.392349 5.333313,3.333302 8.666626,4.99996c2.666626,1.333317 5.841187,3.261547 8.999878,4.99996c2.87616,1.582897 5.776611,2.796078 8.999939,4.66663c2.078979,1.206474 5.333313,3.333309 7.333313,4.333298l1.333313,0.999992l0.666626,0.333332" id="svg_37" fill-opacity="null" stroke-opacity="null" stroke-width="4" stroke="#000" fill="none"/>
  <path d="m676.994629,48.649864c0.333313,0 1.676636,-0.16291 2.999939,0c2.728088,0.335846 4.896729,1.337639 7.666626,1.999981c2.935669,0.701965 6.666626,0.66666 9.999939,0.999992c3.333252,0.333328 6.666565,0.333332 10.666565,0.333332c4.666626,0 9.714905,0.693504 14.666565,0c2.403198,-0.336582 7.333252,-0.999992 11.666565,-1.333324l2.666626,-0.66666l2.333313,-0.999992l1.333313,-0.333328" id="svg_38" fill-opacity="null" stroke-opacity="null" stroke-width="4" stroke="#000" fill="none"/>
  <path d="m759.993958,36.983288c0.333313,0 1.894165,-1.144207 3.666626,-2.333313c2.849915,-1.911961 5.590515,-3.795082 8.333252,-5.333292c2.600403,-1.458387 5.060913,-2.868383 7.333313,-3.999968c2.40564,-1.197926 4.985657,-2.702946 8.333252,-3.999969c2.655579,-1.02891 5.05603,-1.861601 7.666565,-2.999975c2.73291,-1.191729 5.736633,-1.790861 8.999939,-2.999977c3.07843,-1.140625 6.029114,-1.799408 8.999939,-2.333315c2.705383,-0.4862 4.666626,-0.666661 6.333313,-0.999991l1.333313,0l0.333313,0l0.333313,0" id="svg_39" fill-opacity="null" stroke-opacity="null" stroke-width="4" stroke="#000" fill="none"/>
  <path d="m832.993347,13.983471c0,0 1,0 1.666687,0c1.999939,0 5.025574,0.577151 6.333252,0.999992c1.708008,0.552284 2.666687,0.666673 4.666626,1.666653c2,1.000004 4.434204,2.126198 7.333313,3.666637c2.776978,1.475533 6.028137,3.283571 8.999878,4.999962c3.36615,1.944185 6.666626,4.333298 8.999939,5.66662l2.333313,1.333323l0.333374,0.333332" id="svg_40" fill-opacity="null" stroke-opacity="null" stroke-width="4" stroke="#000" fill="none"/>
  <path d="m883.326294,38.64994c0.666687,0 1.338196,-0.098537 2.333313,0c1.691406,0.16748 3.326172,1.018154 4.999939,1.666656c2.65564,1.028931 4.947449,1.819912 7.666626,2.666645c2.62439,0.817223 5.362976,0.865734 8.666626,1.666653c2.358337,0.571754 5.333252,1.333321 8.333252,1.666653c3,0.333332 4.999939,0.66666 6.999939,0.66666l1.333313,0l0.666687,0" id="svg_41" fill-opacity="null" stroke-opacity="null" stroke-width="4" stroke="#000" fill="none"/>
  <path d="m935.325928,46.316551c0.333313,0 1.666626,0 2.999939,0c1.333313,0 3.006836,0.164967 5,0c2.02063,-0.167236 2.670654,-0.306232 4.999939,-0.666664c2.003723,-0.310059 3.437256,-0.63842 6.333313,-1.666653c2.107117,-0.748131 4.776611,-1.796066 7.999939,-3.666637c2.078918,-1.206463 6.157715,-3.378162 9.999878,-5.666622c3.495728,-2.082108 6.60022,-4.473265 9.999939,-5.99995c3.275024,-1.470699 5.333313,-2.333315 6.333252,-2.999977l1,-0.33333l0.333374,-0.33333" id="svg_42" fill-opacity="null" stroke-opacity="null" stroke-width="4" stroke="#000" fill="none"/>
  <path d="m997.325439,21.65008c0.333313,0 0.962463,-0.12557 2.999939,-0.666662c1.642761,-0.436258 3.977539,-1.05406 6.333313,-1.999985c2.642883,-1.061211 5.342285,-1.627241 8.333252,-2.333313c2.675171,-0.631521 5.670776,-1.167279 8.999939,-1.333323c3.345764,-0.166873 8.333313,-0.333331 9.999939,-0.333331c4.666626,0 7.333252,0.333331 9.666504,0.333331l1,0.33333l0.666748,0" id="svg_43" fill-opacity="null" stroke-opacity="null" stroke-width="4" stroke="#000" fill="none"/>
  <path d="m1058.991577,20.650087c0.666626,0.33333 1,0.33333 1.333374,0.33333c0.333252,0 1.654419,0.053461 3,0.33333c1.984985,0.412851 3.716309,1.239529 5.666626,2.333315c2.742676,1.538214 5.150635,3.624313 7.666504,4.999962c3.150024,1.722406 6.77124,3.386436 10.666626,4.999958c4.131714,1.711399 8.730347,4.456974 12.999878,6.666615c4.123291,2.134003 8.333252,2.666645 12.333252,3.666637l3,0.333332l2,0l1.666626,0" id="svg_44" fill-opacity="null" stroke-opacity="null" stroke-width="4" stroke="#000" fill="none"/>
  <path d="m1132.657715,41.98325c0.333252,0 0.666626,0 1.333252,0c1.333374,0 2.666626,0 4.666626,0c1.666748,0 3.369019,0.306316 4.666626,0c2.17627,-0.513737 4.052246,-1.52655 6,-2.333313c2.065796,-0.855698 4.066284,-2.208267 6.666626,-3.666637c2.742676,-1.538219 4.587036,-2.805275 5.666626,-3.333305c1.893799,-0.926229 3.124023,-1.128422 4.333252,-1.999987c0.382446,-0.275642 0.666748,-0.33333 1,-0.33333l0.333374,0" id="svg_45" fill-opacity="null" stroke-opacity="null" stroke-width="4" stroke="#000" fill="none"/>
  <path d="m1174.990723,25.316717c0.333252,0 1.034058,-0.455811 1.666626,-0.666662c1.581055,-0.527044 3.268921,-2.119366 5.666626,-3.333307c2.928955,-1.482933 5.955444,-2.438272 8.999878,-3.666637c3.618164,-1.459816 7.627686,-2.536577 12.333252,-3.333306c5.299316,-0.897259 9.333252,-0.999992 13.999878,-0.999992c3.333374,0 7.37561,-0.580862 11.333252,0c3.443115,0.505353 6,1.333323 8,1.999985l1.333252,0.33333l0.666626,0l0.666748,0" id="svg_46" fill-opacity="null" stroke-opacity="null" stroke-width="4" stroke="#000" fill="none"/>
  <path d="m1247.656738,19.650095c0.333374,0 0.692749,-0.070026 1.666626,0.33333c0.688721,0.285244 1.744751,0.497654 3.333374,1.333323c1.063721,0.559521 2.32251,1.038937 4.666626,1.666655c1.327515,0.355484 3.647705,1.382572 5.333252,1.999985c1.979492,0.725128 4.333374,1.333323 6,1.999983c3.333252,1.333323 4.965942,1.799656 7.333252,2.333315c1.977905,0.445883 3.392212,0.448353 5,0.999992c1.409912,0.483774 2.00647,0.574198 2.666626,0.666662c2.403198,0.336584 3.274536,0.828745 4,0.99999c0.648804,0.153141 1.333252,0 1.666626,0c0.333252,0 0.692017,-0.127596 1,0c0.435425,0.180401 0.666626,0.333332 1,0.333332c0.333252,0 0.666626,0 1,0c0,0 0.333252,0 0.666626,0c0.333374,0 0.666626,0 1,0l0.333252,0" id="svg_47" fill-opacity="null" stroke-opacity="null" stroke-width="4" stroke="#000" fill="none"/>
  <g id="svg_72">
   <g transform="matrix(0.121115, 0, 0, 0.121115, 0, 0)" id="svg_52">
    <g id="svg_53">
     <g id="svg_54">
      <path id="svg_55" d="m11020.914063,116.161621l-0.882813,-0.883026c-11.476563,-11.475983 -31.779297,-11.475983 -43.254883,0l-45.90332,46.786011c-2.647461,2.648041 -6.178711,2.648041 -8.828125,0l-64.441406,-60.027008c-6.179688,-5.296997 -14.124023,-8.828003 -22.952148,-8.828003l-96.22168,0c-2.647461,0 -4.413086,0.883026 -5.296875,1.766022l-81.212891,77.683014c-11.476563,12.358994 -12.359375,31.778976 -1.766602,43.254974c5.296875,6.179016 13.241211,9.710022 22.069336,9.710022c8.828125,0 16.771484,-3.531006 22.068359,-9.710022l57.378906,-60.909973l20.303711,0l-134.176758,150.067963l-82.979492,0c-20.303711,0 -36.192383,15.007019 -37.076172,33.545013c-0.882813,9.710022 2.647461,19.421021 9.709961,26.483002c7.0625,6.179016 15.890625,10.593018 25.599609,10.593018l123.587891,0c2.648438,0 4.414063,-0.882996 6.178711,-2.64801l63.55957,-67.972015l52.964844,55.614014l-15.890625,102.399994c-4.414063,17.655029 4.414063,34.42804 19.421875,41.490051c5.296875,2.647949 9.708984,3.531006 15.005859,3.531006c5.296875,0 10.59375,-0.883057 15.890625,-3.531006c8.828125,-4.414063 15.889648,-13.241028 18.538086,-23.835022l27.364258,-147.421021c0,-2.64801 -0.882813,-6.178986 -2.647461,-7.945007l-73.268555,-73.269012l58.261719,-58.262009l40.607422,40.60701c11.475586,11.476013 30.896484,11.476013 42.371094,0l75.917969,-75.916992c11.476563,-11.47699 11.476563,-30.897003 0,-42.372986zm-12.359375,30.014008l-75.916016,75.916992c-5.296875,4.414001 -13.241211,4.414001 -17.655273,0l-46.786133,-46.78598c-3.53125,-3.531006 -8.828125,-3.531006 -12.359375,0l-70.621094,70.620972c-1.765625,1.766022 -2.647461,3.531006 -2.647461,6.178986s0.882813,4.414001 3.53125,7.062012l75.916992,75.917023l-26.483398,142.123962c-1.765625,4.414063 -5.296875,8.828003 -9.709961,11.476074c-4.414063,1.765991 -9.709961,2.647949 -15.006836,0c-7.944336,-3.531006 -11.475586,-12.359009 -9.709961,-22.069031l16.771484,-107.697021c0,-2.64798 -0.882813,-5.296997 -2.647461,-7.061981l-62.676758,-65.324036c-1.765625,-1.765991 -3.530273,-2.64801 -6.177734,-2.64801c-2.648438,0 -5.296875,0.882996 -6.179688,2.64801l-67.089844,71.503021l-120.054688,0c-5.296875,0 -9.710938,-1.765991 -13.241211,-5.296997c-2.647461,-3.531006 -4.414063,-7.945007 -4.414063,-13.240997c0,-9.709991 8.828125,-16.772003 19.420898,-16.772003l86.509766,0c2.648438,0 4.414063,-0.882996 6.179688,-0.882996l150.068359,-167.723999c2.648438,-2.64801 2.648438,-6.179016 1.765625,-9.710022c-0.882813,-3.530975 -4.414063,-5.296997 -7.944336,-5.296997l-44.137695,0c-1.766602,0 -4.414063,0.882996 -6.179688,2.64801l-60.027344,63.558975c-1.765625,2.64801 -5.296875,4.414001 -8.828125,4.414001c-3.53125,0 -7.0625,-1.765991 -9.709961,-4.414001c-4.414063,-5.296997 -4.414063,-13.240997 0.882813,-18.537964l78.56543,-75.034012l93.572266,0c3.53125,0 7.945313,1.765991 10.59375,4.414001l64.44043,60.028015c9.709961,8.827988 24.717773,7.944992 33.544922,-0.882996l45.904297,-46.786041c4.414063,-4.414001 13.241211,-4.414001 17.655273,0l0.882813,0.883026c4.412109,4.412994 4.412109,12.358002 -0.001953,16.772003z"/>
      <path id="svg_56" d="m10923.810547,119.692596c29.130859,0 52.96582,-23.833984 52.96582,-52.965973s-23.834961,-52.965004 -52.96582,-52.965004s-52.966797,23.834007 -52.966797,52.965981s23.835938,52.964996 52.966797,52.964996zm0,-88.275972c19.420898,0 35.310547,15.890001 35.310547,35.309999c0,19.42099 -15.890625,35.309998 -35.310547,35.309998s-35.310547,-15.890015 -35.310547,-35.309998c0,-19.419998 15.890625,-35.309999 35.310547,-35.309999z"/>
     </g>
    </g>
   </g>
   <g transform="matrix(0.121115, 0, 0, 0.121115, 0, 0)" id="svg_57"/>
   <g transform="matrix(0.121115, 0, 0, 0.121115, 0, 0)" id="svg_58"/>
   <g transform="matrix(0.121115, 0, 0, 0.121115, 0, 0)" id="svg_59"/>
   <g transform="matrix(0.121115, 0, 0, 0.121115, 0, 0)" id="svg_60"/>
   <g transform="matrix(0.121115, 0, 0, 0.121115, 0, 0)" id="svg_61"/>
   <g transform="matrix(0.121115, 0, 0, 0.121115, 0, 0)" id="svg_62"/>
   <g transform="matrix(0.121115, 0, 0, 0.121115, 0, 0)" id="svg_63"/>
   <g transform="matrix(0.121115, 0, 0, 0.121115, 0, 0)" id="svg_64"/>
   <g transform="matrix(0.121115, 0, 0, 0.121115, 0, 0)" id="svg_65"/>
   <g transform="matrix(0.121115, 0, 0, 0.121115, 0, 0)" id="svg_66"/>
   <g transform="matrix(0.121115, 0, 0, 0.121115, 0, 0)" id="svg_67"/>
   <g transform="matrix(0.121115, 0, 0, 0.121115, 0, 0)" id="svg_68"/>
   <g transform="matrix(0.121115, 0, 0, 0.121115, 0, 0)" id="svg_69"/>
   <g transform="matrix(0.121115, 0, 0, 0.121115, 0, 0)" id="svg_70"/>
   <g transform="matrix(0.121115, 0, 0, 0.121115, 0, 0)" id="svg_71"/>
  </g>
 </g>
</svg>